# xmcd CD database file
#
# Track frame offsets:
#	150
#	11400
#	21255
#	34612
#	43915
#	55957
#	66195
#	76757
#	87817
#	99757
#	110695
#	122685
#	133695
#	142745
#	153355
#	163170
#	176150
#	186120
#	198100
#	210095
#	222292
#	233852
#	243592
#	257917
#	270690
#
# Disc length: 3731 seconds
#
# Revision: 4
# Processed by: cddbd v1.5.1PL2 Copyright (c) Steve Scherf et al.
# Submitted via: CDex 1.70beta1
#
DISCID=530e9119
DTITLE=Various Artist - Country Classics - Disc 2
DYEAR=1998
DGENRE=Country
TTITLE0=Hank Locklin - Send Me The Pillow Your Dream On
TTITLE1=Dave Dudley - Six Days On The Road
TTITLE2=Lynn Anderson - Rose Garden
TTITLE3=Frankie Laine - Rawhide
TTITLE4=Patsy Cline - Walkin' After Midnight
TTITLE5=Buck Owens - Rhythm and Booze
TTITLE6=Ferli Huskey - Wings Of Dove
TTITLE7=Kenny Rogers - Always Leaving, Always Gone
TTITLE8=Johhny Lee - Rambling Roses
TTITLE9=Willie Nelson - I Feel Sorry For Him
TTITLE10=Patsy Cline - In Care Of The Blues
TTITLE11=Texx Ritter - Have I Stayed Away Too Long?
TTITLE12=Kitty Wells - I'll Repossess My Heart
TTITLE13=Stonewall Jackson - Waterloo
TTITLE14=Dave Dudley - Last Day In The Mines
TTITLE15=Frankie Laine - Moonlight Gambler
TTITLE16=Carl Perkins - This Ole House
TTITLE17=Johnny Lee - Candy Store
TTITLE18=Waylon Jennings - Don't Think Twice
TTITLE19=Stonewall Jackson - I Can't Get Enough Of You
TTITLE20=Patsy Cline - The Heart You Break May Be Your Own
TTITLE21=Barbara Mandrell - Release Me
TTITLE22=George Jones - Open Pit Mine
TTITLE23=Willie Nelson - If I Don't Understand
TTITLE24=George Jones - Please Don't Let That Woman Get Me
EXTD=YEAR: 1998
EXTT0=
EXTT1=
EXTT2=
EXTT3=
EXTT4=
EXTT5=
EXTT6=
EXTT7=
EXTT8=
EXTT9=
EXTT10=
EXTT11=
EXTT12=
EXTT13=
EXTT14=
EXTT15=
EXTT16=
EXTT17=
EXTT18=
EXTT19=
EXTT20=
EXTT21=
EXTT22=
EXTT23=
EXTT24=
PLAYORDER=
